<svg width="20" height="20" viewBox="0 0 20 20" fill="none" xmlns="http://www.w3.org/2000/svg">
<path d="M2.5013 2.5H17.5013C17.9615 2.5 18.3346 2.8731 18.3346 3.33333V16.6667C18.3346 17.1269 17.9615 17.5 17.5013 17.5H2.5013C2.04107 17.5 1.66797 17.1269 1.66797 16.6667V3.33333C1.66797 2.8731 2.04107 2.5 2.5013 2.5ZM3.33464 4.16667V15.8333H16.668V4.16667H3.33464ZM16.668 10L13.7217 12.9462L12.5432 11.7677L14.311 10L12.5432 8.23223L13.7217 7.05372L16.668 10ZM5.69166 10L7.45943 11.7677L6.28091 12.9462L3.33464 10L6.28091 7.05372L7.45943 8.23223L5.69166 10ZM9.37155 14.1667H7.59794L10.6311 5.83333H12.4046L9.37155 14.1667Z" fill="#473366"/>
</svg>
