<svg width="20" height="20" viewBox="0 0 20 20" fill="none" xmlns="http://www.w3.org/2000/svg">
<g id="Frame">
<path id="Vector" d="M9.08798 1.75L17.3376 2.92851L18.5161 11.1781L10.8557 18.8384C10.5303 19.1638 10.0027 19.1638 9.67723 18.8384L1.42768 10.5888C1.10223 10.2634 1.10223 9.73575 1.42768 9.41033L9.08798 1.75ZM9.67723 3.51777L3.19544 9.99958L10.2665 17.0707L16.7483 10.5888L15.8645 4.40165L9.67723 3.51777ZM11.4451 8.82108C10.7941 8.17019 10.7941 7.11492 11.4451 6.46404C12.0959 5.81317 13.1511 5.81317 13.8021 6.46404C14.4529 7.11492 14.4529 8.17019 13.8021 8.82108C13.1511 9.47192 12.0959 9.47192 11.4451 8.82108Z" fill="#473366"/>
</g>
</svg>
