<svg width="20" height="20" viewBox="0 0 20 20" fill="none" xmlns="http://www.w3.org/2000/svg">
<path d="M2.50391 5.83277L9.54167 1.14093C9.82159 0.954324 10.1863 0.954324 10.4662 1.14093L17.5039 5.83277V17.4994C17.5039 17.9597 17.1308 18.3328 16.6706 18.3328H3.33724C2.87701 18.3328 2.50391 17.9597 2.50391 17.4994V5.83277ZM4.17057 6.72474V16.6661H15.8373V6.72474L10.0039 2.83585L4.17057 6.72474ZM6.67057 13.3328H13.3373V14.9994H6.67057V13.3328ZM6.67057 10.8328H13.3373V12.4994H6.67057V10.8328ZM10.0039 9.16609C9.08342 9.16609 8.33726 8.41993 8.33726 7.49943C8.33726 6.57896 9.08342 5.83277 10.0039 5.83277C10.9244 5.83277 11.6706 6.57896 11.6706 7.49943C11.6706 8.41993 10.9244 9.16609 10.0039 9.16609Z" fill="#473366"/>
</svg>
