<svg width="20" height="20" viewBox="0 0 20 20" fill="none" xmlns="http://www.w3.org/2000/svg">
<path d="M3.33333 1.66699H16.6667C17.1269 1.66699 17.5 2.04009 17.5 2.50033V17.5003C17.5 17.9606 17.1269 18.3337 16.6667 18.3337H3.33333C2.8731 18.3337 2.5 17.9606 2.5 17.5003V2.50033C2.5 2.04009 2.8731 1.66699 3.33333 1.66699ZM4.16667 3.33366V16.667H15.8333V3.33366H4.16667ZM5.83333 5.00032H14.1667V8.33366H5.83333V5.00032ZM5.83333 10.0003H7.5V11.667H5.83333V10.0003ZM5.83333 13.3337H7.5V15.0003H5.83333V13.3337ZM9.16667 10.0003H10.8333V11.667H9.16667V10.0003ZM9.16667 13.3337H10.8333V15.0003H9.16667V13.3337ZM12.5 10.0003H14.1667V15.0003H12.5V10.0003Z" fill="#473366"/>
</svg>
