<svg width="20" height="20" viewBox="0 0 20 20" fill="none" xmlns="http://www.w3.org/2000/svg">
<path d="M7.5013 0.833008V2.49967H12.5013V0.833008H14.168V2.49967H17.5013C17.9615 2.49967 18.3346 2.87277 18.3346 3.33301V16.6663C18.3346 17.1266 17.9615 17.4997 17.5013 17.4997H2.5013C2.04107 17.4997 1.66797 17.1266 1.66797 16.6663V3.33301C1.66797 2.87277 2.04107 2.49967 2.5013 2.49967H5.83463V0.833008H7.5013ZM16.668 9.16634H3.33464V15.833H16.668V9.16634ZM6.66797 11.6663V13.333H5.0013V11.6663H6.66797ZM15.0013 11.6663V13.333H8.33463V11.6663H15.0013ZM5.83463 4.16634H3.33464V7.49967H16.668V4.16634H14.168V5.83301H12.5013V4.16634H7.5013V5.83301H5.83463V4.16634Z" fill="#7256C2"/>
</svg>
