<svg width="20" height="20" viewBox="0 0 20 20" fill="none" xmlns="http://www.w3.org/2000/svg">
<path d="M14.1667 1.66699V3.33366H16.6722C17.1293 3.33366 17.5 3.70445 17.5 4.16149V17.5058C17.5 17.963 17.1292 18.3337 16.6722 18.3337H3.32783C2.87063 18.3337 2.5 17.9629 2.5 17.5058V4.16149C2.5 3.70429 2.87079 3.33366 3.32783 3.33366H5.83333V1.66699H14.1667ZM5.83333 5.00032H4.16667V16.667H15.8333V5.00032H14.1667V6.66699H5.83333V5.00032ZM7.5 13.3337V15.0003H5.83333V13.3337H7.5ZM7.5 10.8337V12.5003H5.83333V10.8337H7.5ZM7.5 8.33366V10.0003H5.83333V8.33366H7.5ZM12.5 3.33366H7.5V5.00032H12.5V3.33366Z" fill="white"/>
</svg>
