<svg width="20" height="20" viewBox="0 0 20 20" fill="none" xmlns="http://www.w3.org/2000/svg">
<g id="Frame">
<path id="Vector" d="M14.1667 1.66699V3.33366H16.6722C17.1293 3.33366 17.5 3.70445 17.5 4.16149V17.5058C17.5 17.963 17.1292 18.3337 16.6722 18.3337H3.32783C2.87063 18.3337 2.5 17.9629 2.5 17.5058V4.16149C2.5 3.70429 2.87079 3.33366 3.32783 3.33366H5.83333V1.66699H14.1667ZM5.83333 5.00032H4.16667V16.667H15.8333V5.00032H14.1667V6.66699H5.83333V5.00032ZM12.5 3.33366H7.5V5.00032H12.5V3.33366Z" fill="#473366"/>
<path id="Vector_2" d="M11.3726 13.3977C10.2607 14.0544 8.80457 13.9051 7.84924 12.9497C6.71692 11.8174 6.71692 9.98155 7.84924 8.84923C8.98157 7.71692 10.8174 7.71692 11.9497 8.84923C12.9051 9.80457 13.0544 11.2607 12.3977 12.3726L14 13.9748L12.9749 15L11.3726 13.3977ZM10.9246 11.9246C11.4908 11.3585 11.4908 10.4405 10.9246 9.87436C10.3585 9.3082 9.44055 9.3082 8.87436 9.87436C8.3082 10.4405 8.3082 11.3585 8.87436 11.9246C9.44055 12.4908 10.3585 12.4908 10.9246 11.9246Z" fill="#473366"/>
</g>
</svg>
