<svg width="20" height="20" viewBox="0 0 20 20" fill="none" xmlns="http://www.w3.org/2000/svg">
<path d="M3.33464 4.16667V15.8333H16.668V4.16667H3.33464ZM2.5013 2.5H17.5013C17.9615 2.5 18.3346 2.8731 18.3346 3.33333V16.6667C18.3346 17.1269 17.9615 17.5 17.5013 17.5H2.5013C2.04107 17.5 1.66797 17.1269 1.66797 16.6667V3.33333C1.66797 2.8731 2.04107 2.5 2.5013 2.5ZM5.0013 5.83333H7.5013V14.1667H5.0013V5.83333ZM8.33463 5.83333H10.0013V14.1667H8.33463V5.83333ZM10.8346 5.83333H11.668V14.1667H10.8346V5.83333ZM12.5013 5.83333H15.0013V14.1667H12.5013V5.83333Z" fill="#473366"/>
</svg>
