<svg width="25" height="24" viewBox="0 0 25 24" fill="none" xmlns="http://www.w3.org/2000/svg">
<path d="M21.7619 4.74418H17.8549V6.69766H21.7619V4.74418Z" fill="white"/>
<path d="M21.7619 7.81396H17.8549V9.76744H21.7619V7.81396Z" fill="white"/>
<path d="M17.8549 10.8837H21.7619V12.8372H17.8549V10.8837Z" fill="white"/>
<path d="M21.7619 13.9535H17.8549V15.907H21.7619V13.9535Z" fill="white"/>
<path d="M17.8549 17.0233H21.7619V18.9767H17.8549V17.0233Z" fill="white"/>
<path fill-rule="evenodd" clip-rule="evenodd" d="M14.506 0H12.8484C9.98121 0.506593 7.11286 1.00307 4.24403 1.49963C2.82944 1.74448 1.41473 1.98935 0 2.23546V21.7674C1.46174 22.0232 2.92385 22.2754 4.38585 22.5275C7.18301 23.0099 9.97979 23.4923 12.7729 24H14.506V21.4884C15.8599 21.4858 17.2136 21.4874 18.5671 21.489C20.1069 21.4909 21.6464 21.4928 23.1851 21.4884C23.1969 21.4879 23.2089 21.4874 23.221 21.4869C23.6863 21.4677 24.3518 21.4402 24.4606 20.8744C24.5824 20.3009 24.5713 19.7132 24.5603 19.1275C24.5559 18.8951 24.5515 18.6631 24.5555 18.4324C24.5551 17.8454 24.5547 17.2584 24.5543 16.6714C24.5515 12.4166 24.5487 8.16135 24.5608 3.90407C24.558 3.83626 24.5563 3.76742 24.5546 3.69802C24.5444 3.28195 24.5336 2.84597 24.2873 2.49198C23.9367 2.25107 23.5063 2.24047 23.094 2.23032C23.0241 2.2286 22.9548 2.22689 22.8864 2.22407C20.711 2.23503 18.5357 2.23407 16.3602 2.2331C15.7421 2.23283 15.1241 2.23256 14.506 2.23256V0ZM23.7154 3.06977H14.5061V4.74418H16.7386V6.69767H14.5061V7.81395H16.7386V9.76744H14.5061V10.8837H16.7386V12.8372H14.5061V13.9535H16.7386V15.907H14.5061V17.0233H16.7386V18.9767H14.5061V20.6512H23.7154V3.06977ZM8.26605 7.35895C8.89675 7.3143 9.53035 7.27523 10.1637 7.24464C9.41974 8.77254 8.66908 10.2972 7.91174 11.8185C8.32056 12.6509 8.73399 13.4801 9.14753 14.3095L9.14757 14.3096L9.14775 14.3099C9.51057 15.0376 9.87346 15.7654 10.2334 16.4957C9.56156 16.4571 8.89 16.4144 8.21872 16.3673C8.07509 16.015 7.92199 15.6662 7.76887 15.3175C7.41621 14.5142 7.06344 13.7106 6.82605 12.8622C6.59702 13.5463 6.30881 14.207 6.0206 14.8677C5.83149 15.3012 5.64238 15.7347 5.46999 16.1749C4.85872 16.1664 4.24744 16.1414 3.63639 16.1162C3.88698 15.6257 4.13451 15.1338 4.38208 14.6419C4.84297 13.726 5.30397 12.81 5.78501 11.9022C5.41226 11.0488 5.01778 10.2053 4.62327 9.36174L4.62318 9.36155C4.35327 8.78443 4.08335 8.20726 3.82036 7.62686C4.43431 7.59047 5.04826 7.5543 5.66222 7.52081C5.76994 7.80359 5.88028 8.0854 5.99063 8.36724C6.30614 9.17307 6.62172 9.97908 6.87628 10.8083C7.13342 9.97994 7.4792 9.1856 7.8251 8.39101L7.82516 8.39088C7.97447 8.04787 8.12382 7.70481 8.26605 7.35895Z" fill="white"/>
</svg>
