<svg width="27" height="28" viewBox="0 0 27 28" fill="none" xmlns="http://www.w3.org/2000/svg">
<g id="Frame 1251">
<g id="Vector">
<path d="M23.7749 27.7413C22.8051 23.872 22.0432 23.7565 22.0432 23.7565C21.1955 21.9654 15.1261 22.6713 12.6654 22.4668C10.2046 22.259 9.82204 21.8204 9.26455 21.2629C8.77299 20.7713 8.26178 19.0826 7.88585 16.0446C7.83632 15.6323 7.78695 15.1935 7.74067 14.7284C7.36132 10.8591 11.2867 10.0674 11.2867 10.0674C15.3736 9.39446 18.3457 8.97549 20.516 9.06464C23.8442 9.20316 25.2957 10.5392 26.0015 13.9962C27.1725 19.7093 23.7749 27.7413 23.7749 27.7413Z" fill="#70567B"/>
<path d="M23.7749 27.7413C22.8051 23.872 22.0432 23.7565 22.0432 23.7565C21.1955 21.9654 15.1261 22.6713 12.6654 22.4668C10.2046 22.259 9.82204 21.8204 9.26455 21.2629C8.77299 20.7713 8.26178 19.0826 7.88585 16.0446C7.83632 15.6323 7.78695 15.1935 7.74067 14.7284C7.36132 10.8591 11.2867 10.0674 11.2867 10.0674C15.3736 9.39446 18.3457 8.97549 20.516 9.06464C23.8442 9.20316 25.2957 10.5392 26.0015 13.9962C27.1725 19.7093 23.7749 27.7413 23.7749 27.7413Z" fill="white" fill-opacity="0.36"/>
</g>
<path id="Vector_2" d="M19.0438 14.4821C19.0438 14.4821 19.0439 14.482 19.0439 14.482C19.287 14.2389 19.4736 13.895 19.6262 13.5263C19.7848 13.1429 19.9328 12.6667 20.0703 12.1035C20.3454 10.9762 20.5917 9.44347 20.7842 7.4889C21.006 5.23564 19.9502 3.8313 18.8493 3.0283C18.3116 2.6361 17.7666 2.38709 17.3602 2.23601C17.1556 2.15996 16.9822 2.10733 16.8572 2.0731C16.7946 2.05595 16.7437 2.04334 16.7068 2.03466C16.6883 2.03031 16.6733 2.02694 16.6619 2.02448L16.6477 2.02144L16.6428 2.02041L16.6408 2.02002L16.64 2.01985C16.6396 2.01977 16.6393 2.0197 16.4911 2.75492L16.6393 2.0197L16.6261 2.01703L16.6127 2.01485C14.0266 1.58992 11.8621 1.26135 10.0585 1.1006C8.26137 0.940439 6.76638 0.940841 5.53649 1.20454C4.28205 1.47349 3.28684 2.0205 2.53415 2.945C1.79902 3.84793 1.34661 5.04888 1.04245 6.53184C0.420625 9.56351 1.01495 13.1382 1.72524 15.8869C2.08385 17.2747 2.47945 18.4791 2.78551 19.3371C2.93866 19.7665 3.06972 20.11 3.163 20.3474C3.20964 20.4661 3.24687 20.5583 3.27271 20.6215L3.30271 20.6943L3.31085 20.7138L3.31313 20.7192L3.31381 20.7208L3.31404 20.7214C3.31412 20.7215 3.31418 20.7217 4.00484 20.4293L3.31418 20.7217L4.18852 22.787L4.73245 20.6112C5.20816 18.7083 5.61824 17.7946 5.87329 17.3746C5.93806 17.2679 5.98913 17.1993 6.024 17.1573L6.24091 17.1239L6.41151 16.7651C6.47032 16.6414 6.70714 16.4221 7.40049 16.2421C8.04733 16.0741 8.89737 15.9902 9.84773 15.9541C10.7426 15.9202 11.6847 15.9296 12.576 15.9385C12.6246 15.939 12.6731 15.9395 12.7214 15.94C13.6382 15.949 14.518 15.9556 15.1758 15.9008L15.1136 15.1534M19.0438 14.4821L18.5136 13.9517C18.4997 13.9655 18.486 13.9792 18.4724 13.9929C17.9365 14.5302 17.5145 14.9534 15.1136 15.1534M19.0438 14.4821C19.0281 14.4978 19.0122 14.5138 18.9961 14.5299C18.7306 14.7967 18.4094 15.1194 17.8267 15.3724C17.2413 15.6265 16.4337 15.796 15.1758 15.9008L15.1136 15.1534M19.0438 14.4821L15.1136 15.1534" fill="#AD649B" stroke="white" stroke-width="1.5"/>
</g>
</svg>
