<svg width="64" height="64" viewBox="0 0 64 64" fill="none" xmlns="http://www.w3.org/2000/svg">
<g id="_x32_3_1_">
<path id="Vector" d="M32 64C49.6731 64 64 49.6731 64 32C64 14.3269 49.6731 0 32 0C14.3269 0 0 14.3269 0 32C0 49.6731 14.3269 64 32 64Z" fill="#B970A7"/>
<path id="Vector_2" d="M45.2671 49.2308C43.9751 44.076 42.96 43.9221 42.96 43.9221C41.8306 41.5358 33.7447 42.4763 30.4664 42.2039C27.1881 41.927 26.6784 41.3426 25.9357 40.5999C25.2808 39.9451 24.5998 37.6953 24.0989 33.6479C24.0329 33.0986 23.9672 32.514 23.9055 31.8944C23.4001 26.7395 28.6296 25.6848 28.6296 25.6848C34.0744 24.7883 38.034 24.2301 40.9255 24.3489C45.3595 24.5334 47.2932 26.3133 48.2334 30.9189C49.7935 38.5301 45.2671 49.2308 45.2671 49.2308Z" fill="#473366"/>
<path id="Vector_3" d="M35.5631 15.9433C35.5631 15.9433 40.7957 16.9975 40.2881 22.1522C39.7806 27.3069 38.9995 30.1183 38.2575 30.8601C37.5156 31.602 37.0079 32.1879 33.7278 32.4611C30.4476 32.7343 22.3645 31.7974 21.2321 34.1793C21.2321 34.1793 20.2168 34.3355 18.9283 39.49C18.9283 39.49 14.3986 28.7904 15.9604 21.1758C17.5222 13.5613 21.7786 13.6784 35.5631 15.9433Z" fill="white"/>
</g>
</svg>
