<svg width="125" height="26" viewBox="0 0 125 26" fill="none" xmlns="http://www.w3.org/2000/svg">
<path d="M4.712 13.476V20H0.792V6H4.292L4.656 8.212C5.832 6.588 7.596 5.58 9.668 5.58C12.44 5.58 14.652 7.092 15.772 9.556C16.864 7.12 18.964 5.58 21.54 5.58C25.572 5.58 28.456 8.8 28.456 13.476V20H24.536V13.476C24.536 10.956 22.884 9.192 20.532 9.192C18.18 9.192 16.584 10.956 16.584 13.476V20H12.664V13.476C12.664 10.956 11.012 9.192 8.66 9.192C6.308 9.192 4.712 10.956 4.712 13.476ZM33.3912 6H36.8912L37.2552 7.792C38.6832 6.392 40.7272 5.58 43.0792 5.58C47.7272 5.58 51.2272 8.744 51.2272 12.972C51.2272 17.256 47.7552 20.42 43.0792 20.42C40.7552 20.42 38.7392 19.636 37.3112 18.236V25.6H33.3912V6ZM47.3072 12.972C47.3072 10.676 45.1792 9.024 42.2392 9.024C39.2992 9.024 37.3112 10.648 37.3112 12.972C37.3112 15.324 39.2992 16.948 42.2392 16.948C45.2352 16.948 47.3072 15.268 47.3072 12.972ZM59.3011 0.399999V20H55.3811V0.399999H59.3011ZM81.2146 20H77.7426L77.3506 18.152C75.9226 19.58 73.8786 20.42 71.4986 20.42C66.8506 20.42 63.3506 17.256 63.3506 13.028C63.3506 8.744 66.8226 5.58 71.4986 5.58C73.8506 5.58 75.9226 6.392 77.3506 7.848L77.7426 6H81.2146V20ZM67.2706 13.028C67.2706 15.296 69.3986 16.948 72.3386 16.948C75.3066 16.948 77.2946 15.352 77.2946 13.028C77.2946 10.676 75.2786 9.024 72.3386 9.024C69.3986 9.024 67.2706 10.704 67.2706 13.028ZM90.1284 13.476V20H86.2084V6H89.7084L90.1004 8.296C91.3324 6.616 93.1804 5.58 95.3644 5.58C99.5644 5.58 102.504 8.8 102.504 13.476V20H98.5844V13.476C98.5844 10.956 96.7924 9.192 94.3004 9.192C91.8084 9.192 90.1284 10.956 90.1284 13.476ZM124.429 20H120.957L120.565 18.152C119.137 19.58 117.093 20.42 114.713 20.42C110.065 20.42 106.565 17.256 106.565 13.028C106.565 8.744 110.037 5.58 114.713 5.58C117.037 5.58 119.081 6.392 120.509 7.792V0.399999H124.429V20ZM110.485 13.028C110.485 15.296 112.613 16.948 115.553 16.948C118.521 16.948 120.509 15.352 120.509 13.028C120.509 10.676 118.493 9.024 115.553 9.024C112.613 9.024 110.485 10.704 110.485 13.028Z" fill="white"/>
</svg>
