<svg width="20" height="20" viewBox="0 0 20 20" fill="none" xmlns="http://www.w3.org/2000/svg">
<path d="M5.42057 1.66699H14.5873C14.8495 1.66699 15.0965 1.79048 15.2539 2.00033L17.5039 5.00032V17.5003C17.5039 17.9606 17.1308 18.3337 16.6706 18.3337H3.33724C2.87701 18.3337 2.50391 17.9606 2.50391 17.5003V5.00032L4.75391 2.00033C4.91129 1.79048 5.15828 1.66699 5.42057 1.66699ZM15.8373 6.66699H4.17057V16.667H15.8373V6.66699ZM15.4206 5.00032L14.1706 3.33366H5.83724L4.58724 5.00032H15.4206ZM7.50391 8.33366V10.0003C7.50391 11.3811 8.62317 12.5003 10.0039 12.5003C11.3846 12.5003 12.5039 11.3811 12.5039 10.0003V8.33366H14.1706V10.0003C14.1706 12.3015 12.3051 14.167 10.0039 14.167C7.70272 14.167 5.83724 12.3015 5.83724 10.0003V8.33366H7.50391Z" fill="#473366"/>
</svg>
