<svg width="20" height="20" viewBox="0 0 20 20" fill="none" xmlns="http://www.w3.org/2000/svg">
<g id="Frame">
<path id="Vector" d="M5.83463 4.16634V1.66634C5.83463 1.20611 6.20773 0.833008 6.66797 0.833008H13.3346C13.7949 0.833008 14.168 1.20611 14.168 1.66634V4.16634H17.5013C17.9615 4.16634 18.3346 4.53944 18.3346 4.99967V16.6663C18.3346 17.1266 17.9615 17.4997 17.5013 17.4997H2.5013C2.04107 17.4997 1.66797 17.1266 1.66797 16.6663V4.99967C1.66797 4.53944 2.04107 4.16634 2.5013 4.16634H5.83463ZM3.33464 13.333V15.833H16.668V13.333H3.33464ZM3.33464 11.6663H16.668V5.83301H3.33464V11.6663ZM7.5013 2.49967V4.16634H12.5013V2.49967H7.5013ZM9.16797 9.16634H10.8346V10.833H9.16797V9.16634Z" fill="#473366"/>
</g>
</svg>
