<svg width="20" height="20" viewBox="0 0 20 20" fill="none" xmlns="http://www.w3.org/2000/svg">
<g id="Frame">
<path id="Subtract" fill-rule="evenodd" clip-rule="evenodd" d="M17.9154 5.41634L9.9987 0.833008L2.08203 5.41634V14.583L9.9987 19.1663L11.2851 18.4216C11.0567 17.9005 10.908 17.3365 10.8544 16.7451L10.8321 16.758V16.2803C10.8321 16.2701 10.832 16.2599 10.832 16.2497C10.832 16.2395 10.8321 16.2292 10.8321 16.219V10.4801L16.2487 7.34415L16.2487 10.833C16.8302 10.833 17.3903 10.9246 17.9154 11.0943V5.41634ZM9.99878 9.03668L4.57693 5.89776L9.9987 2.75884L15.4205 5.89779L9.99878 9.03668ZM3.7487 13.6221V7.34408L9.16545 10.4801V16.7581L3.7487 13.6221Z" fill="#473366"/>
<path id="Vector" d="M17.1849 18.2832C15.9936 18.9869 14.4335 18.8269 13.4099 17.8033C12.1967 16.5901 12.1967 14.6231 13.4099 13.4099C14.6231 12.1967 16.59 12.1967 17.8032 13.4099C18.8269 14.4335 18.9869 15.9936 18.2832 17.1849L20 18.9016L18.9017 20L17.1849 18.2832ZM16.7049 16.7049C17.3116 16.0984 17.3116 15.1148 16.7049 14.5082C16.0984 13.9016 15.1149 13.9016 14.5082 14.5082C13.9016 15.1148 13.9016 16.0984 14.5082 16.7049C15.1149 17.3116 16.0984 17.3116 16.7049 16.7049Z" fill="#473366"/>
</g>
</svg>
