<svg width="21" height="19" viewBox="0 0 21 19" fill="none" xmlns="http://www.w3.org/2000/svg">
<path id="Path 3" fill-rule="evenodd" clip-rule="evenodd" d="M1.39139 7.92108C6.82451 5.32442 10.4474 3.61254 12.2602 2.78544C17.4359 0.423913 18.5114 0.0136902 19.2124 0.000144428C19.3666 -0.00283482 19.7113 0.0390792 19.9346 0.237839C20.1231 0.405667 20.175 0.63238 20.1998 0.7915C20.2247 0.95062 20.2556 1.3131 20.231 1.59633C19.9505 4.82908 18.7369 12.6741 18.1195 16.2949C17.8582 17.8269 17.3438 18.3406 16.8458 18.3909C15.7635 18.5001 14.9417 17.6063 13.8934 16.8525C12.2531 15.673 11.3264 14.9387 9.73421 13.7877C7.89413 12.4576 9.08698 11.7265 10.1356 10.5317C10.4101 10.219 15.1787 5.46098 15.271 5.02935C15.2825 4.97537 15.2932 4.77415 15.1843 4.66789C15.0753 4.56164 14.9145 4.59798 14.7984 4.62687C14.6339 4.66783 12.0135 6.56779 6.93712 10.3267C6.19332 10.887 5.51961 11.16 4.91599 11.1457C4.25055 11.1299 2.9705 10.733 2.01892 10.3936C0.851759 9.97746 -0.0758726 9.75742 0.00490333 9.05061C0.0469764 8.68246 0.50914 8.30595 1.39139 7.92108Z" fill="white"/>
</svg>
