<svg width="22" height="22" viewBox="0 0 22 22" fill="none" xmlns="http://www.w3.org/2000/svg">
<path d="M18.3346 20.167H16.5013V18.3337C16.5013 16.8148 15.2701 15.5837 13.7513 15.5837H8.2513C6.73252 15.5837 5.5013 16.8148 5.5013 18.3337V20.167H3.66797V18.3337C3.66797 15.8024 5.72 13.7503 8.2513 13.7503H13.7513C16.2826 13.7503 18.3346 15.8024 18.3346 18.3337V20.167ZM11.0013 11.917C7.96373 11.917 5.5013 9.45455 5.5013 6.41699C5.5013 3.37942 7.96373 0.916992 11.0013 0.916992C14.0389 0.916992 16.5013 3.37942 16.5013 6.41699C16.5013 9.45455 14.0389 11.917 11.0013 11.917ZM11.0013 10.0837C13.0263 10.0837 14.668 8.44204 14.668 6.41699C14.668 4.39195 13.0263 2.75033 11.0013 2.75033C8.97626 2.75033 7.33464 4.39195 7.33464 6.41699C7.33464 8.44204 8.97626 10.0837 11.0013 10.0837Z" fill="white"/>
</svg>
