<svg width="20" height="20" viewBox="0 0 20 20" fill="none" xmlns="http://www.w3.org/2000/svg">
<path d="M16.6654 18.333H14.9987V16.6663C14.9987 15.2856 13.8794 14.1663 12.4987 14.1663H7.4987C6.11799 14.1663 4.9987 15.2856 4.9987 16.6663V18.333H3.33203V16.6663C3.33203 14.3652 5.19751 12.4997 7.4987 12.4997H12.4987C14.7999 12.4997 16.6654 14.3652 16.6654 16.6663V18.333ZM9.9987 10.833C7.23727 10.833 4.9987 8.59442 4.9987 5.83301C4.9987 3.07158 7.23727 0.833008 9.9987 0.833008C12.7601 0.833008 14.9987 3.07158 14.9987 5.83301C14.9987 8.59442 12.7601 10.833 9.9987 10.833ZM9.9987 9.16634C11.8396 9.16634 13.332 7.67396 13.332 5.83301C13.332 3.99206 11.8396 2.49967 9.9987 2.49967C8.15775 2.49967 6.66536 3.99206 6.66536 5.83301C6.66536 7.67396 8.15775 9.16634 9.9987 9.16634Z" fill="#473366"/>
</svg>
