<svg width="22" height="22" viewBox="0 0 22 22" fill="none" xmlns="http://www.w3.org/2000/svg">
<g id="Group">
<path id="Vector" d="M1.14997 20.9219L2.60351 16.5616L2.71202 16.236L2.53666 15.9411C1.64343 14.4387 1.12931 12.6862 1.12931 10.8103C1.12931 5.25421 5.63352 0.75 11.1897 0.75C16.7458 0.75 21.25 5.25421 21.25 10.8103C21.25 16.3665 16.7458 20.8707 11.1897 20.8707C9.49854 20.8707 7.90742 20.4518 6.50948 19.7156L6.25132 19.5797L5.96916 19.6539L1.14997 20.9219Z" stroke="white" stroke-width="1.5"/>
<path id="Vector_2" d="M16.9031 13.5508C16.501 12.7908 15.0181 11.9219 15.0181 11.9219C14.6826 11.7306 14.2778 11.7092 14.0865 12.0502C14.0865 12.0502 13.6046 12.628 13.4821 12.7111C12.9223 13.0903 12.4038 13.0756 11.8804 12.5522L10.664 11.3358L9.44755 10.1194C8.92413 9.59601 8.90946 9.07749 9.28866 8.51772C9.37177 8.39519 9.94958 7.91334 9.94958 7.91334C10.2906 7.72176 10.2692 7.31721 10.0779 6.98172C10.0779 6.98172 9.20891 5.49888 8.44899 5.09677C8.12571 4.92567 7.72879 4.98555 7.47029 5.24405L6.93312 5.78121C5.22904 7.48526 6.06809 9.40901 7.77218 11.1131L9.3296 12.6705L10.887 14.2279C12.5911 15.9319 14.5149 16.7709 16.219 15.0669L16.7562 14.5297C17.0147 14.2706 17.0742 13.8737 16.9031 13.5508Z" fill="white"/>
</g>
</svg>
