<svg width="102" height="12" viewBox="0 0 102 12" fill="none" xmlns="http://www.w3.org/2000/svg">
<path d="M3.09829 11.7814L0 0.20786H2.03252L4.4131 9.09682L6.96429 0.20786H8.85954L11.4196 9.14388L13.8109 0.210804L15.8434 0.20786L12.7442 11.7794L10.3881 11.7765L7.91241 3.13457L5.43574 11.7794L3.09829 11.7814Z" fill="white"/>
<path d="M3.09829 11.7814L0 0.20786H2.03252L4.4131 9.09682L6.96429 0.20786H8.85954L11.4196 9.14388L13.8109 0.210804L15.8434 0.20786L12.7442 11.7794L10.3881 11.7765L7.91241 3.13457L5.43574 11.7794L3.09829 11.7814Z" fill="url(#paint0_linear_63_44943)"/>
<path d="M19.18 0.213745H17.2455V11.7735H19.18V0.213745Z" fill="white"/>
<path d="M19.18 0.213745H17.2455V11.7735H19.18V0.213745Z" fill="url(#paint1_linear_63_44943)"/>
<path d="M23.3166 9.96062H28.0268V11.7735H21.4223V0.213745H23.3166V9.96062Z" fill="white"/>
<path d="M23.3166 9.96062H28.0268V11.7735H21.4223V0.213745H23.3166V9.96062Z" fill="url(#paint2_linear_63_44943)"/>
<path d="M33.9783 9.97336C35.0725 9.97336 35.9667 9.5998 36.6334 8.85367C37.3276 8.10753 37.6746 7.14666 37.6746 6.01422C37.6746 4.85432 37.3276 3.92091 36.6334 3.17477C35.9529 2.42863 35.0587 2.05507 33.9783 2.05507H31.3359V9.97434H33.9783V9.97336ZM33.9783 0.213745C35.5666 0.213745 36.8873 0.787319 37.9276 1.89329C38.9816 3.00024 39.515 4.37291 39.515 5.99951C39.515 7.61239 38.9816 8.98603 37.9276 10.1057C36.8863 11.2127 35.5656 11.7725 33.9783 11.7725H29.4279V0.212764H33.9783V0.213745Z" fill="white"/>
<path d="M33.9783 9.97336C35.0725 9.97336 35.9667 9.5998 36.6334 8.85367C37.3276 8.10753 37.6746 7.14666 37.6746 6.01422C37.6746 4.85432 37.3276 3.92091 36.6334 3.17477C35.9529 2.42863 35.0587 2.05507 33.9783 2.05507H31.3359V9.97434H33.9783V9.97336ZM33.9783 0.213745C35.5666 0.213745 36.8873 0.787319 37.9276 1.89329C38.9816 3.00024 39.515 4.37291 39.515 5.99951C39.515 7.61239 38.9816 8.98603 37.9276 10.1057C36.8863 11.2127 35.5656 11.7725 33.9783 11.7725H29.4279V0.212764H33.9783V0.213745Z" fill="url(#paint3_linear_63_44943)"/>
<path d="M46.2538 10.0057C47.1342 10.0057 47.8284 9.28507 47.8284 8.37814C47.8284 7.4712 47.1342 6.76428 46.2538 6.76428H43.1976V10.0057H46.2538ZM43.1986 2.00213V5.04355H45.8939C46.7342 5.04355 47.3754 4.37683 47.3754 3.52284C47.3754 2.66885 46.7352 2.00213 45.8939 2.00213H43.1986ZM49.7237 8.47128C49.7237 9.41842 49.3903 10.2057 48.7099 10.8323C48.0294 11.4588 47.2284 11.7794 46.241 11.7794H41.2906V0.214724H45.8812C46.8283 0.214724 47.6294 0.534359 48.2834 1.13539C48.9501 1.74916 49.2707 2.50903 49.2707 3.41596C49.2707 4.42977 48.8707 5.20337 48.0961 5.77694C49.1099 6.31032 49.7237 7.27118 49.7237 8.47128Z" fill="white"/>
<path d="M46.2538 10.0057C47.1342 10.0057 47.8284 9.28507 47.8284 8.37814C47.8284 7.4712 47.1342 6.76428 46.2538 6.76428H43.1976V10.0057H46.2538ZM43.1986 2.00213V5.04355H45.8939C46.7342 5.04355 47.3754 4.37683 47.3754 3.52284C47.3754 2.66885 46.7352 2.00213 45.8939 2.00213H43.1986ZM49.7237 8.47128C49.7237 9.41842 49.3903 10.2057 48.7099 10.8323C48.0294 11.4588 47.2284 11.7794 46.241 11.7794H41.2906V0.214724H45.8812C46.8283 0.214724 47.6294 0.534359 48.2834 1.13539C48.9501 1.74916 49.2707 2.50903 49.2707 3.41596C49.2707 4.42977 48.8707 5.20337 48.0961 5.77694C49.1099 6.31032 49.7237 7.27118 49.7237 8.47128Z" fill="url(#paint4_linear_63_44943)"/>
<path d="M53.42 9.96552H58.543V11.7794H51.5248V0.214724H58.4636V2.0286H53.42V5.02982H58.0498V6.83095H53.42V9.96552Z" fill="white"/>
<path d="M53.42 9.96552H58.543V11.7794H51.5248V0.214724H58.4636V2.0286H53.42V5.02982H58.0498V6.83095H53.42V9.96552Z" fill="url(#paint5_linear_63_44943)"/>
<path d="M62.1462 2.00213V5.87107H64.868C65.8818 5.87107 66.6829 5.01708 66.6829 3.9366C66.6829 2.86984 65.8691 2.00213 64.868 2.00213H62.1462ZM66.8427 11.7794L64.3876 7.56434H62.1462V11.7794H60.251V0.214724H64.8808C65.922 0.214724 66.8025 0.574557 67.5094 1.30893C68.2301 2.01585 68.6036 2.89632 68.6036 3.9366C68.6036 5.40436 67.683 6.75153 66.3083 7.28491L68.937 11.7804H66.8427V11.7794Z" fill="white"/>
<path d="M62.1462 2.00213V5.87107H64.868C65.8818 5.87107 66.6829 5.01708 66.6829 3.9366C66.6829 2.86984 65.8691 2.00213 64.868 2.00213H62.1462ZM66.8427 11.7794L64.3876 7.56434H62.1462V11.7794H60.251V0.214724H64.8808C65.922 0.214724 66.8025 0.574557 67.5094 1.30893C68.2301 2.01585 68.6036 2.89632 68.6036 3.9366C68.6036 5.40436 67.683 6.75153 66.3083 7.28491L68.937 11.7804H66.8427V11.7794Z" fill="url(#paint6_linear_63_44943)"/>
<path d="M72.2873 1.99624V5.86714H75.0091C76.0229 5.86714 76.8239 5.01315 76.8239 3.93169C76.8239 2.86396 76.0101 1.99624 75.0091 1.99624H72.2873ZM76.971 11.7794L74.5296 7.56238H72.2883V11.7794H70.393V0.20786H75.0228C76.064 0.20786 76.9445 0.567693 77.6514 1.30207C78.3721 2.00899 78.7456 2.89043 78.7456 3.93169C78.7456 5.39946 77.825 6.74761 76.4503 7.28197L79.079 11.7794H76.971Z" fill="white"/>
<path d="M72.2873 1.99624V5.86714H75.0091C76.0229 5.86714 76.8239 5.01315 76.8239 3.93169C76.8239 2.86396 76.0101 1.99624 75.0091 1.99624H72.2873ZM76.971 11.7794L74.5296 7.56238H72.2883V11.7794H70.393V0.20786H75.0228C76.064 0.20786 76.9445 0.567693 77.6514 1.30207C78.3721 2.00899 78.7456 2.89043 78.7456 3.93169C78.7456 5.39946 77.825 6.74761 76.4503 7.28197L79.079 11.7794H76.971Z" fill="url(#paint7_linear_63_44943)"/>
<path d="M82.3616 0.209822H80.4664V11.7804H82.3616V0.209822Z" fill="white"/>
<path d="M82.3616 0.209822H80.4664V11.7804H82.3616V0.209822Z" fill="url(#paint8_linear_63_44943)"/>
<path d="M86.4982 9.96552H91.6212V11.7794H84.603V0.214724H91.5418V2.0286H86.4982V5.02982H91.128V6.83095H86.4982V9.96552Z" fill="white"/>
<path d="M86.4982 9.96552H91.6212V11.7794H84.603V0.214724H91.5418V2.0286H86.4982V5.02982H91.128V6.83095H86.4982V9.96552Z" fill="url(#paint9_linear_63_44943)"/>
<path d="M92.9429 9.14682L94.5842 8.18694C95.0509 9.49391 95.999 10.1332 97.453 10.1332C98.8943 10.1332 99.6013 9.5194 99.6013 8.61345C99.6013 8.13302 99.4012 7.78691 99.0277 7.54669C98.6541 7.29373 97.96 7.01332 96.9726 6.72016C95.8647 6.3868 95.3176 6.17305 94.544 5.66713C93.7969 5.13375 93.4233 4.37389 93.4233 3.33361C93.4233 2.30705 93.7831 1.50699 94.5175 0.906937C95.2382 0.293161 96.1186 0 97.1462 0C99.0012 0 100.429 0.959882 101.176 2.54629L99.5748 3.46597C99.0944 2.39922 98.2806 1.85309 97.1462 1.85309C96.0382 1.85309 95.3313 2.41294 95.3313 3.29341C95.3313 4.14642 95.8921 4.54645 97.6668 5.09355C98.107 5.24062 98.4276 5.34652 98.6277 5.42691C98.8414 5.49359 99.1218 5.6132 99.4816 5.76027C99.8552 5.90734 100.148 6.07991 100.322 6.22698C100.936 6.70741 101.509 7.47218 101.509 8.59972C101.509 9.64 101.136 10.4793 100.375 11.0931C99.6277 11.7068 98.6404 12 97.4128 12C95.1715 11.9873 93.5429 10.9205 92.9429 9.14682Z" fill="white"/>
<path d="M92.9429 9.14682L94.5842 8.18694C95.0509 9.49391 95.999 10.1332 97.453 10.1332C98.8943 10.1332 99.6013 9.5194 99.6013 8.61345C99.6013 8.13302 99.4012 7.78691 99.0277 7.54669C98.6541 7.29373 97.96 7.01332 96.9726 6.72016C95.8647 6.3868 95.3176 6.17305 94.544 5.66713C93.7969 5.13375 93.4233 4.37389 93.4233 3.33361C93.4233 2.30705 93.7831 1.50699 94.5175 0.906937C95.2382 0.293161 96.1186 0 97.1462 0C99.0012 0 100.429 0.959882 101.176 2.54629L99.5748 3.46597C99.0944 2.39922 98.2806 1.85309 97.1462 1.85309C96.0382 1.85309 95.3313 2.41294 95.3313 3.29341C95.3313 4.14642 95.8921 4.54645 97.6668 5.09355C98.107 5.24062 98.4276 5.34652 98.6277 5.42691C98.8414 5.49359 99.1218 5.6132 99.4816 5.76027C99.8552 5.90734 100.148 6.07991 100.322 6.22698C100.936 6.70741 101.509 7.47218 101.509 8.59972C101.509 9.64 101.136 10.4793 100.375 11.0931C99.6277 11.7068 98.6404 12 97.4128 12C95.1715 11.9873 93.5429 10.9205 92.9429 9.14682Z" fill="url(#paint10_linear_63_44943)"/>
<defs>
<linearGradient id="paint0_linear_63_44943" x1="-4.11765e-08" y1="4.4" x2="101.353" y2="4.4" gradientUnits="userSpaceOnUse">
<stop stop-color="#CA11AB"/>
<stop offset="1" stop-color="#481173"/>
</linearGradient>
<linearGradient id="paint1_linear_63_44943" x1="-4.11765e-08" y1="4.4" x2="101.353" y2="4.4" gradientUnits="userSpaceOnUse">
<stop stop-color="#CA11AB"/>
<stop offset="1" stop-color="#481173"/>
</linearGradient>
<linearGradient id="paint2_linear_63_44943" x1="-4.11765e-08" y1="4.4" x2="101.353" y2="4.4" gradientUnits="userSpaceOnUse">
<stop stop-color="#CA11AB"/>
<stop offset="1" stop-color="#481173"/>
</linearGradient>
<linearGradient id="paint3_linear_63_44943" x1="-4.11765e-08" y1="4.4" x2="101.353" y2="4.4" gradientUnits="userSpaceOnUse">
<stop stop-color="#CA11AB"/>
<stop offset="1" stop-color="#481173"/>
</linearGradient>
<linearGradient id="paint4_linear_63_44943" x1="-4.11765e-08" y1="4.4" x2="101.353" y2="4.4" gradientUnits="userSpaceOnUse">
<stop stop-color="#CA11AB"/>
<stop offset="1" stop-color="#481173"/>
</linearGradient>
<linearGradient id="paint5_linear_63_44943" x1="-4.11765e-08" y1="4.4" x2="101.353" y2="4.4" gradientUnits="userSpaceOnUse">
<stop stop-color="#CA11AB"/>
<stop offset="1" stop-color="#481173"/>
</linearGradient>
<linearGradient id="paint6_linear_63_44943" x1="-4.11765e-08" y1="4.4" x2="101.353" y2="4.4" gradientUnits="userSpaceOnUse">
<stop stop-color="#CA11AB"/>
<stop offset="1" stop-color="#481173"/>
</linearGradient>
<linearGradient id="paint7_linear_63_44943" x1="-4.11765e-08" y1="4.4" x2="101.353" y2="4.4" gradientUnits="userSpaceOnUse">
<stop stop-color="#CA11AB"/>
<stop offset="1" stop-color="#481173"/>
</linearGradient>
<linearGradient id="paint8_linear_63_44943" x1="-4.11765e-08" y1="4.4" x2="101.353" y2="4.4" gradientUnits="userSpaceOnUse">
<stop stop-color="#CA11AB"/>
<stop offset="1" stop-color="#481173"/>
</linearGradient>
<linearGradient id="paint9_linear_63_44943" x1="-4.11765e-08" y1="4.4" x2="101.353" y2="4.4" gradientUnits="userSpaceOnUse">
<stop stop-color="#CA11AB"/>
<stop offset="1" stop-color="#481173"/>
</linearGradient>
<linearGradient id="paint10_linear_63_44943" x1="-4.11765e-08" y1="4.4" x2="101.353" y2="4.4" gradientUnits="userSpaceOnUse">
<stop stop-color="#CA11AB"/>
<stop offset="1" stop-color="#481173"/>
</linearGradient>
</defs>
</svg>
